# xmcd
#
# Track frame offsets: 
#        150
#        25742
#        60017
#        91557
#        103857
#        141757
#        177942
#        201522
#
# Disc length: 2985 seconds
#
# Revision: 4
# Processed by: cddbd v1.5.2PL0 Copyright (c) Steve Scherf et al.
# Submitted via: ExactAudioCopy v0.99pb3
#
DISCID=5f0ba708
DTITLE=Lonnie Brooks - Live At Pepper's 1968
DYEAR=1900
DGENRE=Blues
TTITLE0=Hideaway
TTITLE1=You Put It On Me
TTITLE2=Sweet Little Angel
TTITLE3=Shakin' Little Mama
TTITLE4=Can't Hold Out Much Longer
TTITLE5=The Train and The Horse
TTITLE6=You Don't Have To Go
TTITLE7=Who's Making Love
EXTD=
EXTT0=
EXTT1=
EXTT2=
EXTT3=
EXTT4=
EXTT5=
EXTT6=
EXTT7=
PLAYORDER=
